<svg width="512" height="512" viewBox="0 0 512 512" fill="none" xmlns="http://www.w3.org/2000/svg">
<g clip-path="url(#clip0)">
<path d="M388.025 151.638C371.172 134.787 343.752 134.787 326.899 151.638C319.912 158.626 315.631 167.499 314.519 177.299C313.572 185.639 315.097 194.14 318.827 201.59L251.336 269.082L270.582 288.327L278.421 280.488L286.933 289L305.2 270.733L296.688 262.221L302.951 255.957L311.463 264.47L329.73 246.203L321.218 237.691L338.073 220.836C345.524 224.566 354.024 226.091 362.364 225.144C372.164 224.032 381.037 219.751 388.024 212.763C404.877 195.911 404.877 168.491 388.025 151.638V151.638ZM381.809 206.548C370.542 217.815 353.18 219.907 339.587 211.636L336.636 209.84L308.786 237.691L317.298 246.203L311.463 252.038L302.951 243.526L284.256 262.221L292.768 270.733L286.933 276.568L278.421 268.056L270.582 275.895L263.768 269.082L329.823 203.027L328.028 200.076C319.756 186.483 321.849 169.121 333.115 157.854C346.54 144.43 368.384 144.43 381.809 157.854C395.233 171.279 395.233 193.123 381.809 206.548V206.548Z" fill="#5A5A5A"/>
<path d="M355.631 163.67C350.017 169.284 350.017 178.418 355.631 184.033C358.438 186.839 362.125 188.243 365.812 188.243C369.499 188.243 373.186 186.839 375.993 184.033H375.994C381.607 178.418 381.607 169.284 375.993 163.67C370.38 158.056 361.245 158.057 355.631 163.67V163.67ZM369.778 177.817C367.591 180.003 364.033 180.003 361.848 177.817C359.661 175.63 359.661 172.072 361.847 169.886C362.941 168.793 364.376 168.246 365.812 168.246C367.248 168.246 368.685 168.793 369.778 169.886C371.964 172.073 371.964 175.63 369.778 177.817Z" fill="#5A5A5A"/>
</g>
<path d="M306.312 224.75H298.5V193.5C298.5 159.03 270.47 131 236 131C201.53 131 173.5 159.03 173.5 193.5V224.75H165.688C152.771 224.75 142.25 235.259 142.25 248.188V357.562C142.25 370.491 152.771 381 165.688 381H306.312C319.229 381 329.75 370.491 329.75 357.562V248.188C329.75 235.259 319.229 224.75 306.312 224.75ZM194.334 193.5C194.334 170.52 213.02 151.834 236 151.834C258.98 151.834 277.666 170.52 277.666 193.5V224.75H194.334V193.5Z" fill="#5A5A5A"/>
<defs>
<clipPath id="clip0">
<rect width="150" height="150" fill="white" transform="translate(251 139)"/>
</clipPath>
</defs>
</svg>
