<svg width="512" height="512" viewBox="0 0 512 512" fill="none" xmlns="http://www.w3.org/2000/svg">
<g clip-path="url(#clip0)">
<path d="M126 356.08H136V346.08H126C120.476 346.08 116 341.604 116 336.08V136.08C116 130.556 120.476 126.08 126 126.08H346C351.524 126.08 356 130.556 356 136.08V146.08H366V136.08C366 125.035 357.045 116.08 346 116.08H126C114.955 116.08 106 125.035 106 136.08V336.08C106 347.125 114.955 356.08 126 356.08Z" fill="#5A5A5A"/>
<path d="M126 136.08H136V146.08H126V136.08Z" fill="#5A5A5A"/>
<path d="M146 136.08H156V146.08H146V136.08Z" fill="#5A5A5A"/>
<path d="M166 136.08H176V146.08H166V136.08Z" fill="#5A5A5A"/>
<path d="M146 376.08C146 387.125 154.955 396.08 166 396.08H386C397.045 396.08 406 387.125 406 376.08V176.08C406 165.035 397.045 156.08 386 156.08H166C154.955 156.08 146 165.035 146 176.08V376.08ZM156 176.08C156 170.556 160.476 166.08 166 166.08H386C391.524 166.08 396 170.556 396 176.08V376.08C396 381.604 391.524 386.08 386 386.08H166C160.476 386.08 156 381.604 156 376.08V176.08Z" fill="#5A5A5A"/>
<path d="M166 176.08H176V186.08H166V176.08Z" fill="#5A5A5A"/>
<path d="M186 176.08H196V186.08H186V176.08Z" fill="#5A5A5A"/>
<path d="M206 176.08H216V186.08H206V176.08Z" fill="#5A5A5A"/>
<path d="M166 196.08H386V206.08H166V196.08Z" fill="#5A5A5A"/>
<path d="M166 221.08H206V231.08H166V221.08Z" fill="#5A5A5A"/>
<path d="M166 241.08H196V251.08H166V241.08Z" fill="#5A5A5A"/>
<path d="M276 261.08C256.669 261.08 241 276.749 241 296.08C241 315.411 256.669 331.08 276 331.08C295.331 331.08 311 315.411 311 296.08C310.978 276.76 295.32 261.103 276 261.08ZM276 321.08C262.194 321.08 251 309.886 251 296.08C251 282.274 262.194 271.08 276 271.08C289.806 271.08 301 282.274 301 296.08C300.983 309.88 289.8 321.063 276 321.08Z" fill="#5A5A5A"/>
<path d="M356 281.08C356 278.318 353.762 276.08 351 276.08H337.785C336.726 272.795 335.406 269.599 333.83 266.53L343.175 257.191C345.125 255.238 345.125 252.074 343.175 250.12L321.96 228.905C320.006 226.955 316.842 226.955 314.889 228.905L305.55 238.245C302.476 236.675 299.282 235.355 296 234.295V221.08C296 218.318 293.762 216.08 291 216.08H261C258.237 216.08 256 218.318 256 221.08V234.295C252.717 235.355 249.524 236.675 246.45 238.245L237.111 228.905C235.157 226.955 231.994 226.955 230.04 228.905L208.825 250.12C206.875 252.074 206.875 255.238 208.825 257.191L218.165 266.53C217.747 267.349 217.345 268.17 216.965 269C215.91 271.305 214.992 273.668 214.215 276.08H201C198.238 276.08 196 278.318 196 281.08V311.08C196 313.843 198.238 316.08 201 316.08H214.215C215.274 319.365 216.594 322.561 218.17 325.63L208.825 334.969C206.875 336.923 206.875 340.086 208.825 342.04L230.04 363.255C231.994 365.205 235.157 365.205 237.111 363.255L246.45 353.915C249.524 355.485 252.717 356.805 256 357.865V371.08C256 373.843 258.237 376.08 261 376.08H291C293.762 376.08 296 373.843 296 371.08V357.865C299.282 356.805 302.476 355.485 305.55 353.915L314.889 363.255C316.842 365.205 320.006 365.205 321.96 363.255L343.175 342.04C345.125 340.086 345.125 336.923 343.175 334.969L333.83 325.63C335.406 322.561 336.726 319.365 337.785 316.08H351C353.762 316.08 356 313.843 356 311.08V281.08ZM346 306.08H334.03C331.75 306.08 329.76 307.624 329.19 309.83C327.912 314.793 325.944 319.555 323.34 323.97C322.181 325.933 322.5 328.433 324.11 330.045L332.564 338.504L318.424 352.65L309.965 344.19C308.351 342.578 305.851 342.26 303.887 343.42C299.472 346.024 294.712 347.994 289.75 349.27C287.544 349.84 286 351.83 286 354.11V366.08H266V354.11C266 351.83 264.456 349.84 262.25 349.27C257.287 347.994 252.527 346.024 248.112 343.42C246.149 342.26 243.649 342.578 242.035 344.19L233.576 352.65L219.436 338.504L227.89 330.045C229.5 328.433 229.819 325.933 228.66 323.97C226.056 319.555 224.087 314.793 222.81 309.83C222.24 307.624 220.25 306.08 217.97 306.08H206V286.08H217.97C220.25 286.08 222.24 284.536 222.81 282.33C223.617 279.183 224.706 276.118 226.061 273.166C226.842 271.455 227.71 269.786 228.66 268.166C229.815 266.203 229.499 263.706 227.89 262.095L219.436 253.636L233.576 239.49L242.035 247.953C243.649 249.565 246.149 249.88 248.112 248.719C252.527 246.118 257.287 244.145 262.25 242.869C264.456 242.3 266 240.308 266 238.031V226.08H286V238.05C286 240.33 287.544 242.32 289.75 242.89C294.712 244.166 299.472 246.136 303.887 248.74C305.851 249.9 308.351 249.583 309.965 247.97L318.424 239.51L332.564 253.656L324.11 262.115C322.5 263.728 322.181 266.228 323.34 268.19C325.944 272.605 327.912 277.368 329.19 282.33C329.76 284.536 331.75 286.08 334.03 286.08H346V306.08Z" fill="#5A5A5A"/>
<path d="M356 366.08H386V376.08H356V366.08Z" fill="#5A5A5A"/>
</g>
<defs>
<clipPath id="clip0">
<rect width="300" height="300" fill="white" transform="translate(106 106)"/>
</clipPath>
</defs>
</svg>
