<svg width="512" height="512" viewBox="0 0 512 512" fill="none" xmlns="http://www.w3.org/2000/svg">
<g clip-path="url(#clip0)">
<path d="M367.683 178.886L297.372 108.575C295.731 106.933 293.491 106 291.156 106H168.109C153.571 106 141.742 117.828 141.742 132.367V379.633C141.742 394.172 153.571 406 168.109 406H343.891C358.429 406 370.258 394.172 370.258 379.633V185.102C370.258 182.705 369.252 180.454 367.683 178.886ZM299.945 136.008L340.25 176.312H308.734C303.888 176.312 299.945 172.37 299.945 167.523V136.008ZM343.891 388.422H168.109C163.263 388.422 159.32 384.479 159.32 379.633V132.367C159.32 127.521 163.263 123.578 168.109 123.578H282.367V167.523C282.367 182.062 294.196 193.891 308.734 193.891H352.68V379.633C352.68 384.479 348.737 388.422 343.891 388.422Z" fill="#5A5A5A"/>
<path d="M308.734 230.219H203.266C198.412 230.219 194.477 234.154 194.477 239.008C194.477 243.862 198.412 247.797 203.266 247.797H308.734C313.588 247.797 317.523 243.862 317.523 239.008C317.523 234.154 313.588 230.219 308.734 230.219Z" fill="#5A5A5A"/>
<path d="M308.734 265.375H203.266C198.412 265.375 194.477 269.31 194.477 274.164C194.477 279.018 198.412 282.953 203.266 282.953H308.734C313.588 282.953 317.523 279.018 317.523 274.164C317.523 269.31 313.588 265.375 308.734 265.375Z" fill="#5A5A5A"/>
<path d="M308.734 300.531H203.266C198.412 300.531 194.477 304.466 194.477 309.32C194.477 314.174 198.412 318.109 203.266 318.109H308.734C313.588 318.109 317.523 314.174 317.523 309.32C317.523 304.466 313.588 300.531 308.734 300.531Z" fill="#5A5A5A"/>
<path d="M273.578 335.688H203.266C198.412 335.688 194.477 339.623 194.477 344.477C194.477 349.33 198.412 353.266 203.266 353.266H273.578C278.432 353.266 282.367 349.33 282.367 344.477C282.367 339.623 278.432 335.688 273.578 335.688Z" fill="#5A5A5A"/>
</g>
<defs>
<clipPath id="clip0">
<rect width="300" height="300" fill="white" transform="translate(106 106)"/>
</clipPath>
</defs>
</svg>
