<svg width="512" height="512" viewBox="0 0 512 512" fill="none" xmlns="http://www.w3.org/2000/svg">
<path d="M256 141.156C259.234 141.156 261.859 138.531 261.859 135.297C261.859 132.063 259.234 129.438 256 129.438C252.766 129.438 250.141 132.063 250.141 135.297C250.141 138.531 252.766 141.156 256 141.156Z" fill="#5A5A5A"/>
<path d="M256 370.844C252.766 370.844 250.141 373.469 250.141 376.703C250.141 379.937 252.766 382.562 256 382.562C259.234 382.562 261.859 379.937 261.859 376.703C261.859 373.469 259.234 370.844 256 370.844Z" fill="#5A5A5A"/>
<path d="M256 106C175.198 106 106 174.96 106 256C106 336.809 174.967 406 256 406C336.802 406 406 337.04 406 256C406 175.191 337.033 106 256 106ZM256 394.281C181.043 394.281 117.719 330.957 117.719 256C117.719 181.043 181.043 117.719 256 117.719C330.957 117.719 394.281 181.043 394.281 256C394.281 330.957 330.957 394.281 256 394.281Z" fill="#5A5A5A"/>
<path d="M280.483 131.887C277.316 131.248 274.221 133.292 273.578 136.464C272.935 139.636 274.983 142.729 278.156 143.372C299.938 147.787 319.744 158.572 335.431 174.557C337.686 176.855 341.396 176.912 343.717 174.635C346.028 172.369 346.063 168.659 343.797 166.349C326.461 148.686 304.569 136.769 280.483 131.887V131.887Z" fill="#5A5A5A"/>
<path d="M233.844 368.628C212.062 364.213 192.256 353.428 176.569 337.443C174.303 335.134 170.593 335.097 168.283 337.365C165.972 339.631 165.937 343.341 168.203 345.651C185.539 363.314 207.431 375.231 231.516 380.113C234.7 380.759 237.781 378.694 238.422 375.536C239.065 372.364 237.017 369.271 233.844 368.628V368.628Z" fill="#5A5A5A"/>
<path d="M250.141 291.156C250.141 287.92 247.518 285.297 244.281 285.297H203.266V273.578H232.562C235.799 273.578 238.422 270.955 238.422 267.719V244.281C238.422 241.045 235.799 238.422 232.562 238.422H203.266V226.703H244.281C247.518 226.703 250.141 224.08 250.141 220.844V197.406C250.141 194.17 247.518 191.547 244.281 191.547H173.969C170.732 191.547 168.109 194.17 168.109 197.406V314.594C168.109 317.83 170.732 320.453 173.969 320.453H244.281C247.518 320.453 250.141 317.83 250.141 314.594V291.156ZM238.422 308.734H179.828V203.266H238.422V214.984H197.406C194.17 214.984 191.547 217.607 191.547 220.844V244.281C191.547 247.518 194.17 250.141 197.406 250.141H226.703V261.859H197.406C194.17 261.859 191.547 264.482 191.547 267.719V291.156C191.547 294.393 194.17 297.016 197.406 297.016H238.422V308.734Z" fill="#5A5A5A"/>
<path d="M338.031 191.547H314.594C311.357 191.547 308.734 194.17 308.734 197.406V279.438C308.734 282.669 306.107 285.297 302.875 285.297C299.639 285.297 297.016 282.672 297.016 279.438V197.406C297.016 194.17 294.393 191.547 291.156 191.547H267.719C264.482 191.547 261.859 194.17 261.859 197.406V279.438C261.859 302.053 280.259 320.453 302.875 320.453C325.507 320.453 343.891 302.145 343.891 279.438V197.406C343.891 194.17 341.268 191.547 338.031 191.547ZM332.172 279.438C332.172 295.668 319.032 308.734 302.875 308.734C286.721 308.734 273.578 295.592 273.578 279.438V203.266H285.297V279.438C285.297 289.149 293.164 297.016 302.875 297.016C312.568 297.016 320.453 289.131 320.453 279.438V203.266H332.172V279.438Z" fill="#5A5A5A"/>
</svg>
