<svg width="512" height="512" viewBox="0 0 512 512" fill="none" xmlns="http://www.w3.org/2000/svg">
<path d="M293.052 146.488L282.885 143.701C281.577 143.265 280.287 143.402 279.034 144.112C277.776 144.822 276.927 145.888 276.491 147.309L215.342 358.951C214.906 360.372 215.043 361.712 215.753 362.967C216.463 364.225 217.527 365.072 218.95 365.508L229.114 368.297C230.425 368.736 231.71 368.599 232.967 367.888C234.224 367.174 235.072 366.111 235.507 364.693L296.658 153.047C297.094 151.627 296.958 150.287 296.247 149.029C295.536 147.771 294.473 146.924 293.052 146.488Z" fill="#5A5A5A"/>
<path d="M201.413 187.803C201.413 186.382 200.866 185.124 199.773 184.032L191.575 175.835C190.482 174.742 189.225 174.195 187.804 174.195C186.384 174.195 185.126 174.743 184.033 175.835L107.64 252.228C106.545 253.321 106 254.579 106 255.999C106 257.42 106.547 258.677 107.64 259.769L184.033 336.163C185.125 337.257 186.381 337.802 187.804 337.802C189.227 337.802 190.482 337.256 191.574 336.163L199.772 327.97C200.865 326.878 201.412 325.62 201.412 324.198C201.412 322.779 200.865 321.521 199.772 320.429L135.346 255.999L199.773 191.574C200.867 190.482 201.413 189.224 201.413 187.803Z" fill="#5A5A5A"/>
<path d="M404.361 252.227L327.966 175.833C326.874 174.741 325.616 174.193 324.197 174.193C322.775 174.193 321.521 174.741 320.425 175.833L312.231 184.03C311.138 185.122 310.594 186.378 310.594 187.801C310.594 189.223 311.138 190.479 312.231 191.571L376.659 255.998L312.231 320.429C311.138 321.521 310.594 322.779 310.594 324.198C310.594 325.62 311.138 326.878 312.231 327.97L320.425 336.163C321.521 337.257 322.775 337.801 324.197 337.801C325.616 337.801 326.874 337.255 327.966 336.163L404.361 259.77C405.454 258.678 406 257.418 406 255.997C406 254.576 405.454 253.319 404.361 252.227Z" fill="#5A5A5A"/>
</svg>
