<svg width="512" height="512" viewBox="0 0 512 512" fill="none" xmlns="http://www.w3.org/2000/svg">
<g clip-path="url(#clip0)">
<path d="M388.353 194.235V106H123.647V194.235H229.529V211.882H123.647V300.118H229.529V317.765H123.647V406H388.353V317.765H282.471V300.118H388.353V211.882H282.471V194.235H388.353ZM141.294 176.588V123.647H370.706V176.588C364.75 176.588 147.254 176.588 141.294 176.588ZM370.706 335.412V388.353H141.294V335.412H370.706ZM264.823 317.765H247.176V300.118H264.823V317.765ZM370.706 229.529V282.471C364.75 282.471 147.254 282.471 141.294 282.471V229.529H370.706ZM264.823 211.882H247.176V194.235H264.823V211.882Z" fill="#5a5a5a"/>
<path d="M158.941 141.294H176.588V158.941H158.941V141.294Z" fill="#5a5a5a"/>
<path d="M194.235 141.294H211.882V158.941H194.235V141.294Z" fill="#5a5a5a"/>
<path d="M229.529 141.294H247.176V158.941H229.529V141.294Z" fill="#5a5a5a"/>
<path d="M264.823 141.294H353.059V158.941H264.823V141.294Z" fill="#5a5a5a"/>
<path d="M158.941 247.177H176.588V264.824H158.941V247.177Z" fill="#5a5a5a"/>
<path d="M194.235 247.177H211.882V264.824H194.235V247.177Z" fill="#5a5a5a"/>
<path d="M229.529 247.177H247.176V264.824H229.529V247.177Z" fill="#5a5a5a"/>
<path d="M264.823 247.177H353.059V264.824H264.823V247.177Z" fill="#5a5a5a"/>
<path d="M158.941 353.059H176.588V370.706H158.941V353.059Z" fill="#5a5a5a"/>
<path d="M194.235 353.059H211.882V370.706H194.235V353.059Z" fill="#5a5a5a"/>
<path d="M229.529 353.059H247.176V370.706H229.529V353.059Z" fill="#5a5a5a"/>
<path d="M264.823 353.059H353.059V370.706H264.823V353.059Z" fill="#5a5a5a"/>
</g>
<defs>
<clipPath id="clip0">
<rect width="300" height="300" fill="white" transform="translate(106 106)"/>
</clipPath>
</defs>
</svg>
