<svg width="512" height="512" viewBox="0 0 512 512" fill="none" xmlns="http://www.w3.org/2000/svg">
<path d="M277.094 229.047H234.906C231.67 229.047 229.047 231.671 229.047 234.906V277.094C229.047 280.329 231.67 282.953 234.906 282.953H277.094C280.33 282.953 282.953 280.329 282.953 277.094V234.906C282.953 231.671 280.33 229.047 277.094 229.047ZM271.234 271.234H240.766V240.766H271.234V271.234Z" fill="#5A5A5A"/>
<path d="M386.078 137.641C375.093 137.641 366.156 146.577 366.156 157.562C366.156 168.548 375.093 177.484 386.078 177.484C397.063 177.484 406 168.548 406 157.562C406 146.577 397.063 137.641 386.078 137.641ZM386.078 165.766C381.555 165.766 377.875 162.086 377.875 157.562C377.875 153.039 381.555 149.359 386.078 149.359C390.602 149.359 394.281 153.039 394.281 157.562C394.281 162.086 390.602 165.766 386.078 165.766Z" fill="#5A5A5A"/>
<path d="M355.955 153.402C354.865 152.313 353.354 151.686 351.812 151.686C350.266 151.686 348.754 152.313 347.664 153.402C346.574 154.492 345.953 156.004 345.953 157.545C345.953 159.086 346.574 160.598 347.664 161.687C348.76 162.777 350.266 163.404 351.812 163.404C353.354 163.404 354.865 162.777 355.955 161.687C357.045 160.598 357.672 159.086 357.672 157.545C357.672 156.004 357.045 154.492 355.955 153.402Z" fill="#5A5A5A"/>
<path d="M349.477 261.859C351.985 269.994 359.572 275.922 368.518 275.922C379.503 275.922 388.44 266.985 388.44 256C388.44 245.015 379.503 236.078 368.518 236.078C359.572 236.078 351.985 242.006 349.477 250.141H313.422V204.438C313.422 201.202 310.799 198.578 307.563 198.578H298.188V163.404H331.013C334.249 163.404 336.872 160.78 336.872 157.545C336.872 154.309 334.249 151.686 331.013 151.686H292.328C289.092 151.686 286.469 154.309 286.469 157.545V198.578H261.859V162.524C269.993 160.015 275.922 152.429 275.922 143.482C275.922 132.497 266.985 123.561 256 123.561C245.015 123.561 236.078 132.497 236.078 143.482C236.078 152.429 242.007 160.016 250.141 162.524V198.578H204.438C201.201 198.578 198.578 201.202 198.578 204.438V213.812H163.404V144.968C171.547 142.466 177.484 134.875 177.484 125.922C177.484 114.937 168.548 106 157.563 106C146.577 106 137.641 114.937 137.641 125.922C137.641 134.862 143.56 142.444 151.685 144.958V219.672C151.685 222.907 154.308 225.531 157.544 225.531H198.578V250.141H162.523C160.015 242.006 152.428 236.078 143.482 236.078C132.497 236.078 123.56 245.015 123.56 256C123.56 266.985 132.497 275.922 143.482 275.922C152.429 275.922 160.015 269.994 162.523 261.859H198.578V307.562C198.578 310.798 201.201 313.422 204.438 313.422H213.813V348.596H180.987C177.751 348.596 175.128 351.22 175.128 354.455C175.128 357.691 177.751 360.314 180.987 360.314H219.672C222.908 360.314 225.531 357.691 225.531 354.455V313.422H250.141V349.476C242.007 351.985 236.078 359.571 236.078 368.518C236.078 379.503 245.015 388.439 256 388.439C266.985 388.439 275.922 379.503 275.922 368.518C275.922 359.571 269.993 351.984 261.859 349.476V313.422H307.563C310.799 313.422 313.422 310.798 313.422 307.562V298.188H348.596V367.032C340.453 369.534 334.516 377.125 334.516 386.078C334.516 397.063 343.452 406 354.438 406C365.423 406 374.359 397.063 374.359 386.078C374.359 377.138 368.44 369.556 360.315 367.042V292.328C360.315 289.093 357.692 286.469 354.456 286.469H313.422V261.859H349.477ZM368.518 247.797C373.042 247.797 376.721 251.477 376.721 256C376.721 260.523 373.041 264.203 368.518 264.203C363.995 264.203 360.315 260.523 360.315 256C360.315 251.477 363.995 247.797 368.518 247.797ZM157.563 134.125C153.039 134.125 149.359 130.445 149.359 125.922C149.359 121.398 153.039 117.719 157.563 117.719C162.086 117.719 165.766 121.398 165.766 125.922C165.766 130.445 162.086 134.125 157.563 134.125ZM143.482 264.203C138.958 264.203 135.279 260.523 135.279 256C135.279 251.477 138.958 247.797 143.482 247.797C148.005 247.797 151.685 251.477 151.685 256C151.685 260.523 148.005 264.203 143.482 264.203ZM247.797 143.482C247.797 138.959 251.477 135.279 256 135.279C260.524 135.279 264.203 138.959 264.203 143.482C264.203 148.006 260.524 151.686 256 151.686C251.477 151.686 247.797 148.006 247.797 143.482ZM264.203 368.518C264.203 373.041 260.524 376.721 256 376.721C251.477 376.721 247.797 373.041 247.797 368.518C247.797 363.994 251.477 360.314 256 360.314C260.524 360.314 264.203 363.994 264.203 368.518ZM301.703 301.703H210.297V210.297H301.703V301.703ZM354.438 377.875C358.961 377.875 362.641 381.555 362.641 386.078C362.641 390.602 358.961 394.281 354.438 394.281C349.914 394.281 346.234 390.602 346.234 386.078C346.234 381.555 349.914 377.875 354.438 377.875Z" fill="#5A5A5A"/>
<path d="M125.922 334.516C114.937 334.516 106 343.452 106 354.438C106 365.423 114.937 374.359 125.922 374.359C136.907 374.359 145.844 365.423 145.844 354.438C145.844 343.452 136.907 334.516 125.922 334.516ZM125.922 362.641C121.398 362.641 117.719 358.961 117.719 354.438C117.719 349.914 121.398 346.234 125.922 346.234C130.445 346.234 134.125 349.914 134.125 354.438C134.125 358.961 130.445 362.641 125.922 362.641Z" fill="#5A5A5A"/>
<path d="M164.342 350.312C163.252 349.223 161.74 348.596 160.199 348.596C158.658 348.596 157.146 349.222 156.057 350.312C154.967 351.402 154.34 352.913 154.34 354.455C154.34 355.996 154.967 357.508 156.057 358.597C157.146 359.687 158.658 360.314 160.199 360.314C161.74 360.314 163.252 359.688 164.342 358.597C165.432 357.508 166.059 355.996 166.059 354.455C166.059 352.913 165.432 351.402 164.342 350.312Z" fill="#5A5A5A"/>
</svg>
